<svg width="30" height="30" viewBox="0 0 30 30" fill="none" xmlns="http://www.w3.org/2000/svg">
<path fill-rule="evenodd" clip-rule="evenodd" d="M1.87504 15.0002C1.87504 14.7515 1.97384 14.5131 2.14964 14.3373C2.32544 14.1614 2.56394 14.0627 2.81254 14.0627H24.9244L19.0238 8.16395C18.8477 7.98792 18.7488 7.74916 18.7488 7.5002C18.7488 7.25125 18.8477 7.01249 19.0238 6.83645C19.1998 6.66042 19.4385 6.56152 19.6875 6.56152C19.9365 6.56152 20.1752 6.66042 20.3513 6.83645L27.8513 14.3364C27.9386 14.4235 28.0079 14.527 28.0551 14.6409C28.1024 14.7547 28.1267 14.8768 28.1267 15.0002C28.1267 15.1235 28.1024 15.2456 28.0551 15.3595C28.0079 15.4734 27.9386 15.5768 27.8513 15.6639L20.3513 23.1639C20.1752 23.34 19.9365 23.4388 19.6875 23.4388C19.4385 23.4388 19.1998 23.34 19.0238 23.1639C18.8477 22.9879 18.7488 22.7491 18.7488 22.5002C18.7488 22.2512 18.8477 22.0124 19.0238 21.8364L24.9244 15.9377H2.81254C2.56394 15.9377 2.32544 15.8389 2.14964 15.6631C1.97384 15.4873 1.87504 15.2488 1.87504 15.0002Z" fill="#1F1946"/>
</svg>
